:SAMPLES-PER-SECOND 30
:FULLY-SPECIFIED
:DEGREES
501
root  1.32206 40.6674 -2.69611 -172.651 -82.212 173.429
RightUpLeg  -6.2076 -8.66839 -4.69516
RightLeg  16.2118 0.648392 0.175028
RightFoot  -7.80163 -0.131564 2.54283
RightToes  0.00048216 0.542163 -0.142577
Spine  9.98761 0.212225 0.942993
Spine1  2.5981 0.443108 -1.01593
HEad  -9.81314 -4.75083 0.424687
LeftShoulder1  3.62797 -6.64934 -29.6284
LeftArm  -14.7515 22.9582 -20.0276
LeftForeArm  13.2277 -3.26864 -2.55104
LeftHand  -0.25398 0.0180481 5.50724
RightShoulder  3.39671 6.91671 26.5381
RightArm  -21.134 -20.1565 25.6453
RightForeArm  0.426874 11.5899 3.72687
RightHand  -2.88666 8.51072 -24.1944
LeftUpLeg  0.584823 5.02071 1.35645
LeftLeg  5.71928 8.24097 -4.04304
LeftFoot  -7.70821 0.0429441 0.0980605
LeftToes  1.06243e-005 4.65856e-005 -8.18503e-006
502
root  1.36214 40.697 -2.5464 -171.056 -82.0236 171.802
RightUpLeg  -4.54077 -9.15314 -5.28893
RightLeg  13.4709 0.475216 0.674528
RightFoot  -8.12435 -0.105358 1.80414
RightToes  0.00048216 0.542163 -0.142577
Spine  9.52708 0.401046 1.9881
Spine1  1.42805 0.98996 -2.38376
HEad  -9.5234 -6.42156 0.643215
LeftShoulder1  2.89035 -5.61304 -25.4686
LeftArm  -14.9408 23.2032 -16.0045
LeftForeArm  11.8648 -4.17068 -2.23892
LeftHand  -0.25398 0.0180481 5.50724
RightShoulder  2.81457 5.99828 23.4259
RightArm  -21.2321 -19.4028 20.015
RightForeArm  -3.29477 11.1275 3.71104
RightHand  -2.88866 8.55917 -24.1293
LeftUpLeg  0.772731 4.60061 0.726607
LeftLeg  5.04808 9.00387 -4.04479
LeftFoot  -7.21145 0.0127722 0.847429
LeftToes  1.06243e-005 4.65856e-005 -8.18503e-006
503
root  1.37596 40.7471 -2.42299 -170.099 -81.8231 170.82
RightUpLeg  -3.34382 -9.11668 -6.00035
RightLeg  10.9429 -0.125856 1.39526
RightFoot  -7.48718 -0.0897565 1.1643
RightToes  0.00048216 0.542163 -0.142577
Spine  8.84222 0.760823 3.37896
Spine1  0.722158 1.73207 -3.92455
HEad  -9.37912 -8.06639 0.86196
LeftShoulder1  2.22223 -4.51132 -21.2778
LeftArm  -16.2482 22.5856 -12.401
LeftForeArm  10.7641 -6.73436 -1.85981
LeftHand  -0.25398 0.0180481 5.50724
RightShoulder  2.27976 5.09417 20.1137
RightArm  -20.6819 -18.3893 14.2735
RightForeArm  -6.27589 10.3066 3.73215
RightHand  -2.90511 8.65625 -24.1022
LeftUpLeg  1.16683 4.27525 0.288956
LeftLeg  4.12127 9.57044 -4.14056
LeftFoot  -6.59066 -0.00593698 1.12034
LeftToes  1.06243e-005 4.65856e-005 -8.18503e-006
504
root  1.3799 40.8078 -2.32171 -171.089 -81.8753 172.022
RightUpLeg  -2.71766 -8.84632 -6.29977
RightLeg  9.17112 -0.507873 2.12703
RightFoot  -6.36156 -0.0802927 0.846564
RightToes  0.00048216 0.542163 -0.142577
Spine  7.80858 1.06291 4.92603
Spine1  0.297234 2.30838 -5.12376
HEad  -9.17904 -9.40365 0.877012
LeftShoulder1  1.6943 -3.50343 -17.4686
LeftArm  -18.5151 21.6562 -9.32796
LeftForeArm  10.2151 -10.2862 -1.50723
LeftHand  -0.25398 0.0180481 5.50724
RightShoulder  1.77721 4.18658 16.4315
RightArm  -20.0428 -16.9568 9.37858
RightForeArm  -9.85947 9.30111 3.83617
RightHand  -3.09847 9.04928 -24.9604
LeftUpLeg  1.33644 4.10173 0.256418
LeftLeg  3.22107 9.68099 -4.22198
LeftFoot  -6.11586 -0.0119713 1.12046
LeftToes  1.06243e-005 4.65856e-005 -8.18503e-006
505
root  1.4001 40.8659 -2.25113 -173.111 -82.3557 174.297
RightUpLeg  -2.09554 -8.54477 -6.28788
RightLeg  7.56742 -1.08118 2.74781
RightFoot  -5.37282 -0.0800796 0.838933
RightToes  0.00048216 0.542163 -0.142577
Spine  6.95407 1.09598 6.01327
Spine1  -0.286113 2.41584 -5.64244
HEad  -8.8358 -10.194 0.609173
LeftShoulder1  1.30539 -2.64907 -14.2286
LeftArm  -21.4239 20.8799 -6.54872
LeftForeArm  10.1919 -14.2334 -1.5873
LeftHand  -0.25398 0.0180481 5.50724
RightShoulder  1.36258 3.3687 12.8418
RightArm  -19.4813 -14.992 5.50951
RightForeArm  -15.3399 8.47966 4.18448
RightHand  -3.45991 9.68872 -26.609
LeftUpLeg  1.2433 3.95561 0.405545
LeftLeg  2.65146 9.45806 -4.11906
LeftFoot  -5.71654 -0.0301104 1.30919
LeftToes  1.06243e-005 4.65856e-005 -8.18503e-006
506
root  1.45355 40.9085 -2.23109 -173.786 -83.1161 174.95
RightUpLeg  -1.25557 -8.52742 -6.37268
RightLeg  6.06382 -1.88328 3.19685
RightFoot  -4.69631 -0.0753502 0.765533
RightToes  0.00048216 0.542163 -0.142577
Spine  6.66187 0.925183 6.06798
Spine1  -1.00317 2.14861 -5.41322
HEad  -8.60053 -10.5572 0.319272
LeftShoulder1  1.02063 -1.96831 -11.3975
LeftArm  -24.692 19.9727 -4.25217
LeftForeArm  10.1465 -17.4277 -2.26029
LeftHand  -0.25398 0.0180481 5.50724
RightShoulder  1.07617 2.74467 9.95442
RightArm  -19.0903 -12.6444 2.33285
RightForeArm  -20.994 8.0112 4.67271
RightHand  -3.8276 10.4323 -27.9902
LeftUpLeg  1.25383 3.7531 0.415916
LeftLeg  2.31569 9.05964 -3.94698
LeftFoot  -5.2679 -0.0481298 1.50703
LeftToes  1.06243e-005 4.65856e-005 -8.18503e-006
507
root  1.53517 40.9282 -2.26539 -172.333 -83.8725 173.218
RightUpLeg  -0.628422 -8.81807 -6.5926
RightLeg  5.39691 -2.46978 3.41578
RightFoot  -4.33065 -0.0577105 0.491748
RightToes  0.00048216 0.542163 -0.142577
Spine  6.70375 0.77479 5.37174
Spine1  -1.47802 1.85039 -4.79972
HEad  -8.71679 -10.8379 0.285881
LeftShoulder1  0.827224 -1.55553 -8.84774
LeftArm  -27.3001 18.4787 -2.80428
LeftForeArm  9.41968 -18.8909 -2.77312
LeftHand  -0.25398 0.0180481 5.50724
RightShoulder  0.883477 2.24815 7.86411
RightArm  -19.1317 -10.4123 -0.191438
RightForeArm  -23.9671 8.04076 5.01937
RightHand  -4.04097 11.0734 -28.3792
LeftUpLeg  1.49397 3.59481 0.321847
LeftLeg  2.03338 8.53214 -3.89903
LeftFoot  -4.88642 -0.0524829 1.45355
LeftToes  1.06243e-005 4.65856e-005 -8.18503e-006
